#!OML:ASF F:\VICON\USERDATA\INSTALL\rory3\rory3.ASF
:FULLY-SPECIFIED
:DEGREES
294
root 1.33535 16.8205 34.6686 -154.496 0.75825 -181.294
lowerback -6.05974 -3.8972 -7.00093
upperback -6.8929 -4.32829 1.18322
thorax -3.16432 -1.57042 4.96692
lowerneck -20.2037 1.43062 1.21766
upperneck 28.2369 3.30451 -1.69844
head 12.8386 1.7487 -0.21657
rclavicle 3.72721e-015 -7.95139e-016
rhumerus -35.0787 22.6241 -90.0611
rradius 59.8732
rwrist -42.3634
rhand 1.56448 15.2798
rfingers 7.12502
rthumb 27.088 -12.7969
lclavicle 3.72721e-015 -7.95139e-016
lhumerus -7.65685 -83.1918 79.5645
lradius 56.0902
lwrist 5.27311
lhand 24.0942 17.4288
lfingers 7.12502
lthumb 48.3283 39.487
rfemur -73.1589 7.53364 4.80058
rtibia 45.8777
rfoot -34.8956 -16.8007
rtoes 55.7769
lfemur -32.3869 -4.21364 -28.6745
ltibia 33.7243
lfoot -44.6963 23.2833
ltoes 6.54849
295
root 1.35134 16.81 34.6084 -154.597 0.602786 -181.425
lowerback -5.866 -4.06457 -7.13592
upperback -6.9932 -4.55786 1.24348
thorax -3.33379 -1.66491 5.10805
lowerneck -19.9695 1.61868 1.26955
upperneck 28.1497 3.56848 -1.70425
head 12.7607 1.8752 -0.185874
rclavicle 2.64384e-014 6.75868e-015
rhumerus -34.7884 22.5783 -89.2925
rradius 56.8712
rwrist -39.9693
rhand 1.49178 15.0242
rfingers 7.12502
rthumb 27.0184 -13.0633
lclavicle 2.64384e-014 6.75868e-015
lhumerus -4.32583 -83.7019 76.5118
lradius 52.9219
lwrist 1.03897
lhand 24.8065 17.3092
lfingers 7.12502
lthumb 48.9835 39.0498
rfemur -73.5387 6.91906 5.77438
rtibia 46.0961
rfoot -31.4833 -22.011
rtoes 53.2389
lfemur -31.9769 -4.29368 -28.7156
ltibia 33.6364
lfoot -44.8002 23.1675
ltoes 6.54375
296
root 1.36554 16.7922 34.5402 -154.676 0.440432 -181.569
lowerback -5.68839 -4.17745 -7.26415
upperback -6.93979 -4.73127 1.29598
thorax -3.33991 -1.75262 5.23515
lowerneck -20.5987 1.82165 1.33572
upperneck 28.2284 3.8067 -1.72882
head 12.9295 1.96296 -0.160336
rclavicle 1.71949e-014 9.93923e-015
rhumerus -34.0274 22.3312 -88.2552
rradius 54.0001
rwrist -37.0184
rhand 0.885576 14.0752
rfingers 7.12502
rthumb 26.4383 -14.101
lclavicle 1.71949e-014 9.93923e-015
lhumerus 4.67568 -84.3698 67.7951
lradius 49.9456
lwrist -2.75886
lhand 24.9464 16.9488
lfingers 7.12502
lthumb 49.112 38.6257
rfemur -73.6344 4.0883 9.23471
rtibia 46.337
rfoot -23.0845 -26.8219
rtoes 49.2148
lfemur -31.6253 -4.54874 -28.7521
ltibia 33.6551
lfoot -44.832 23.4934
ltoes 5.95802
297
root 1.37744 16.7772 34.4623 -154.759 0.306918 -181.643
lowerback -5.64009 -3.32049 -7.29952
upperback -6.8113 -4.87071 1.11672
thorax -3.2915 -2.39768 5.10334
lowerneck -21.5453 1.85685 1.56648
upperneck 28.4383 3.73192 -1.75502
head 13.2166 1.924 -0.21235
rclavicle 1.49089e-015 -3.18055e-015
rhumerus -32.8606 21.0693 -86.8442
rradius 50.4836
rwrist -34.5859
rhand 1.72057 14.5944
rfingers 7.12502
rthumb 27.2373 -13.4589
lclavicle 1.49089e-015 -3.18055e-015
lhumerus 17.9708 -84.9816 54.678
lradius 47.095
lwrist -6.54249
lhand 24.3464 16.8187
lfingers 7.12502
lthumb 48.5604 38.7657
rfemur -73.8205 1.89689 12.1134
rtibia 46.6112
rfoot -12.47 -30.181
rtoes 40.9437
lfemur -31.2683 -4.89422 -28.7115
ltibia 33.7703
lfoot -45.0617 23.9435
ltoes 4.98582
298
root 1.39227 16.7609 34.3865 -154.93 0.180384 -181.715
lowerback -5.50424 -3.29903 -7.29301
upperback -6.74606 -4.83983 1.01835
thorax -3.30998 -2.37968 5.00475
lowerneck -21.9353 1.89165 1.7894
upperneck 28.5341 3.67865 -1.75503
head 13.3412 1.91458 -0.255397
rclavicle 6.16232e-015 -1.35174e-014
rhumerus -31.9547 19.8174 -85.5046
rradius 47.118
rwrist -31.9615
rhand 2.05944 14.92
rfingers 7.12502
rthumb 27.5614 -13.0821
lclavicle 6.16232e-015 -1.35174e-014
lhumerus 25.47 -84.7867 47.3105
lradius 44.2477
lwrist -10.6881
lhand 24.0376 16.5835
lfingers 7.12502
lthumb 48.2762 38.6664
rfemur -73.9197 0.492637 14.1488
rtibia 46.9467
rfoot -2.81402 -30.4941
rtoes 32.0101
lfemur -30.8539 -5.17715 -28.67
ltibia 33.9274
lfoot -45.5181 23.9673
ltoes 4.97841
299
root 1.4067 16.739 34.3078 -155.064 0.024945 -181.822
lowerback -5.47387 -3.40094 -7.3565
upperback -6.7906 -4.98252 1.06443
thorax -3.34705 -2.44701 5.08559
lowerneck -21.8551 1.96061 1.77426
upperneck 28.4921 3.78812 -1.7633
head 13.3093 1.96093 -0.237711
rclavicle 4.17448e-015 -6.36111e-015
rhumerus -31.2365 18.9439 -84.1023
rradius 43.9112
rwrist -29.436
rhand 1.9958 14.6922
rfingers 7.12502
rthumb 27.5006 -13.3197
lclavicle 4.17448e-015 -6.36111e-015
lhumerus 24.6216 -83.8042 48.303
lradius 41.4046
lwrist -14.7687
lhand 24.0257 15.7363
lfingers 7.12502
lthumb 48.2652 37.8244
rfemur -74.034 -0.733567 15.8835
rtibia 47.358
rfoot 4.98953 -28.6016
rtoes 25.1774
lfemur -30.4651 -5.35021 -28.6925
ltibia 34.101
lfoot -45.8929 23.8119
ltoes 5.17105
